ply
format ascii 1.0
comment Created by Blender 2.74 (sub 0) - www.blender.org, source file: ''
element vertex 192
property float x
property float y
property float z
property uchar red
property uchar green
property uchar blue
element face 384
property list uchar uint vertex_indices
end_header
0.224026 1.100595 -2.387303 255 64 0
-0.373244 1.393560 -2.208932 255 0 0
-0.165877 1.598951 -1.929804 255 0 0
0.804141 -0.154127 -2.015677 255 191 0
0.382482 0.180189 -2.134140 255 128 0
0.573310 0.402687 -2.411952 255 128 0
0.134416 0.660357 -1.432382 255 64 0
-0.223946 0.836136 -1.325359 255 0 0
-0.431314 0.630745 -1.604487 255 0 0
-0.037964 0.437805 -1.721959 255 64 0
-0.083120 0.474563 -2.121595 255 64 0
0.025400 0.749101 -2.397190 255 64 0
-0.560936 0.708935 -1.978898 255 0 0
-0.536883 1.024903 -2.229268 255 0 0
-1.075220 1.211300 -1.919628 255 0 64
-0.945078 1.591555 -1.880026 255 0 64
1.333103 0.314732 -2.254906 255 191 0
1.440515 0.583319 -1.973085 255 191 0
1.851187 0.169712 -1.689014 255 255 0
-0.036254 1.520761 -1.555393 255 0 0
-0.493721 1.679157 -1.292268 255 0 64
-0.436905 1.335188 -1.088413 255 0 64
-0.060307 1.204793 -1.305024 255 0 0
-0.567047 0.954933 -1.128015 255 0 64
-0.807911 0.761140 -1.387877 255 0 64
0.441562 1.286389 -1.698090 255 64 0
1.328824 0.657699 -1.592172 255 191 0
1.677804 0.306224 -1.350775 255 255 0
-1.018404 0.867331 -1.715773 255 0 64
0.806030 0.732628 -2.402984 255 128 0
0.944317 0.976735 -2.112489 255 128 0
0.396407 1.323148 -2.097727 255 64 0
2.148344 -0.235901 -1.279636 191 255 0
2.311738 -0.605878 -0.772848 128 255 0
2.258537 -0.948461 -0.979986 128 255 0
0.333042 1.011853 -1.422495 255 64 0
0.483618 0.439576 -1.441791 255 128 0
0.692450 -0.079748 -1.634764 255 191 0
0.345331 0.195469 -1.732286 255 128 0
0.716337 0.769517 -1.432822 255 128 0
1.930322 -0.038458 -1.002894 191 255 0
2.069170 -0.352856 -0.572236 128 255 0
1.558624 -0.078793 -0.850193 191 255 0
1.350745 0.204957 -1.136577 255 255 0
1.061597 -0.074767 -1.171895 255 255 0
1.063457 0.494300 -1.335301 255 191 0
0.799862 0.188839 -1.352943 255 191 0
1.777338 -0.809949 -1.579099 191 255 0
1.480180 -0.404336 -1.988477 255 255 0
1.769328 -0.124612 -1.953159 255 255 0
0.907165 0.992015 -1.710635 255 128 0
1.940731 -1.179926 -1.072311 128 255 0
1.959225 -1.489053 -0.502652 64 255 0
1.560204 -1.427372 -0.511657 64 255 0
1.366909 -0.766094 -0.224928 64 255 0
1.355122 -0.569077 -0.587992 128 255 0
1.301921 -0.911660 -0.795130 128 255 0
1.069509 0.009272 -2.272548 255 191 0
0.979738 -0.369091 -1.436040 255 255 0
1.937441 -1.272026 0.967823 0 255 64
2.202566 -1.142215 0.390522 0 255 0
1.976399 -0.808624 0.416371 0 255 0
1.153121 -0.505602 -1.774280 255 255 0
1.405640 -0.850284 -1.426399 191 255 0
2.084976 -0.555463 -1.518308 191 255 0
2.084886 -0.615546 -0.088152 64 255 0
2.330232 -0.915005 -0.203189 64 255 0
1.250986 -0.333278 -0.910985 191 255 0
1.751101 -0.918934 0.906949 0 255 64
1.424347 -0.938958 1.350151 0 255 128
1.314858 -1.127912 -0.396620 64 255 0
1.225549 -1.286859 0.018715 0 255 0
1.544488 -1.164682 -0.995741 128 255 0
1.672927 -0.337613 -0.495666 128 255 0
1.187618 -0.652840 -1.149657 191 255 0
1.685865 -0.553865 -0.097157 64 255 0
2.278181 -1.276823 -0.374880 64 255 0
1.831560 -1.716263 0.091059 0 255 0
1.285543 -0.910903 0.153464 0 255 0
1.596555 -0.712812 0.318178 0 255 0
1.452507 -1.681089 1.422998 0 255 128
1.181918 -1.869637 1.189909 0 255 128
1.566435 -1.846073 0.668360 0 255 64
2.142572 -1.518172 0.255773 0 255 0
1.451716 -1.620450 -0.007134 0 255 0
0.899664 -1.750784 0.926646 0 255 128
1.226418 -1.730760 0.483444 0 255 64
1.075220 -1.211300 1.919628 0 255 191
1.552924 -1.295589 1.489372 0 255 128
1.860950 -1.656059 0.868996 0 255 64
0.493721 -1.679157 1.292268 0 255 191
1.411085 -0.803621 0.722034 0 255 64
-0.333043 -1.011853 1.422496 0 191 255
0.060307 -1.204793 1.305024 0 255 255
0.036254 -1.520761 1.555393 0 255 255
0.536883 -1.024903 2.229267 0 255 255
1.018404 -0.867331 1.715773 0 255 191
1.040078 -1.377669 0.422571 0 255 64
1.116570 -0.993635 0.521398 0 255 64
0.807911 -0.761141 1.387877 0 255 191
0.704213 -1.785348 1.620165 0 255 191
0.083120 -0.474563 2.121596 0 191 255
-0.025400 -0.749100 2.397190 0 191 255
1.142093 -0.820105 1.086888 0 255 128
0.871504 -1.008653 0.853799 0 255 128
0.771087 -1.394153 0.787424 0 255 128
0.436905 -1.335188 1.088413 0 255 191
-2.148345 0.235902 1.279636 64 0 255
-1.851187 -0.169712 1.689014 0 0 255
-1.769328 0.124612 1.953159 0 0 255
0.945078 -1.591555 1.880026 0 255 191
0.567047 -0.954933 1.128015 0 255 191
0.223946 -0.836136 1.325359 0 255 255
0.165876 -1.598951 1.929804 0 255 255
0.373244 -1.393560 2.208932 0 255 255
-0.224027 -1.100595 2.387304 0 191 255
-0.799862 -0.188839 1.352943 0 64 255
-0.692450 0.079748 1.634764 0 64 255
-0.345331 -0.195469 1.732286 0 128 255
-1.069509 -0.009272 2.272548 0 64 255
-0.573310 -0.402687 2.411952 0 128 255
-0.382482 -0.180189 2.134140 0 128 255
0.560936 -0.708935 1.978898 0 255 255
0.431314 -0.630745 1.604487 0 255 255
0.037964 -0.437805 1.721959 0 191 255
-0.806029 -0.732628 2.402984 0 128 255
-0.441563 -1.286389 1.698091 0 191 255
-0.396407 -1.323148 2.097727 0 191 255
-0.944317 -0.976735 2.112489 0 128 255
-1.440516 -0.583319 1.973085 0 64 255
-1.333103 -0.314732 2.254905 0 64 255
-0.134416 -0.660357 1.432382 0 191 255
-0.716337 -0.769517 1.432822 0 128 255
-0.804142 0.154128 2.015677 0 64 255
-1.350745 -0.204957 1.136577 0 0 255
-1.063457 -0.494300 1.335301 0 64 255
-1.328824 -0.657699 1.592172 0 64 255
-0.483618 -0.439577 1.441791 0 128 255
-0.907165 -0.992015 1.710635 0 128 255
-0.979738 0.369090 1.436040 0 0 255
-1.480180 0.404336 1.988477 0 0 255
-1.153121 0.505603 1.774279 0 0 255
-1.405640 0.850284 1.426399 64 0 255
-2.084886 0.615546 0.088151 191 0 255
-1.685865 0.553865 0.097156 191 0 255
-1.672927 0.337613 0.495666 128 0 255
-1.187618 0.652840 1.149657 64 0 255
-1.558624 0.078793 0.850193 64 0 255
-1.930322 0.038458 1.002894 64 0 255
-2.069170 0.352856 0.572236 128 0 255
-1.677804 -0.306223 1.350774 0 0 255
-2.330232 0.915005 0.203188 191 0 255
-2.311738 0.605878 0.772848 128 0 255
-2.258537 0.948461 0.979986 128 0 255
-1.061597 0.074767 1.171895 0 0 255
-1.959225 1.489053 0.502651 191 0 255
-1.940731 1.179926 1.072311 128 0 255
-1.544488 1.164682 0.995741 128 0 255
-1.777338 0.809949 1.579099 64 0 255
-1.314858 1.127913 0.396619 191 0 255
-1.366909 0.766094 0.224927 191 0 255
-1.285543 0.910903 -0.153464 255 0 255
-1.250986 0.333278 0.910984 64 0 255
-1.831560 1.716263 -0.091059 255 0 255
-2.142572 1.518172 -0.255773 255 0 255
-2.084976 0.555464 1.518307 64 0 255
-1.355122 0.569077 0.587992 128 0 255
-1.451716 1.620450 0.007134 255 0 255
-1.226418 1.730760 -0.483445 255 0 191
-2.202566 1.142215 -0.390522 255 0 255
-1.976399 0.808624 -0.416371 255 0 255
-1.181917 1.869637 -1.189910 255 0 128
-1.566434 1.846073 -0.668360 255 0 191
-1.860949 1.656059 -0.868997 255 0 191
-1.937441 1.272026 -0.967824 255 0 191
-1.560204 1.427372 0.511656 191 0 255
-1.751101 0.918934 -0.906950 255 0 191
-1.301921 0.911660 0.795130 128 0 255
-1.452507 1.681089 -1.422999 255 0 128
-1.225549 1.286859 -0.018715 255 0 255
-2.278181 1.276824 0.374879 191 0 255
-1.040078 1.377669 -0.422571 255 0 191
-1.142093 0.820105 -1.086888 255 0 128
-1.411085 0.803621 -0.722034 255 0 191
-1.596556 0.712811 -0.318178 255 0 255
-0.704213 1.785348 -1.620165 255 0 64
-0.899664 1.750784 -0.926647 255 0 128
-1.116570 0.993635 -0.521398 255 0 191
-1.552924 1.295589 -1.489373 255 0 128
-0.771087 1.394153 -0.787425 255 0 128
-0.871504 1.008653 -0.853799 255 0 128
-1.424346 0.938958 -1.350152 255 0 128
3 0 1 2
3 3 4 5
3 6 7 8
3 9 10 4
3 11 10 12
3 11 5 4
3 13 14 15
3 5 11 0
3 16 17 18
3 19 20 21
3 20 19 2
3 22 21 23
3 7 23 24
3 25 19 22
3 12 8 24
3 17 26 27
3 28 14 13
3 29 30 17
3 0 31 30
3 32 33 34
3 35 6 36
3 3 37 38
3 25 35 39
3 6 9 38
3 32 18 27
3 36 38 37
3 32 40 41
3 42 43 44
3 45 46 44
3 47 48 49
3 26 50 39
3 45 39 36
3 51 52 53
3 54 55 56
3 26 45 43
3 57 16 49
3 44 46 37
3 58 37 3
3 3 57 48
3 59 60 61
3 49 18 32
3 58 62 63
3 47 64 34
3 65 66 33
3 40 27 43
3 52 51 34
3 67 44 58
3 62 48 47
3 59 68 69
3 54 70 71
3 70 56 72
3 40 42 73
3 42 67 55
3 67 74 56
3 74 63 72
3 72 63 47
3 66 65 61
3 41 73 75
3 33 66 76
3 77 52 76
3 76 66 60
3 54 78 79
3 73 55 54
3 68 61 79
3 65 75 79
3 80 81 82
3 82 77 83
3 84 77 82
3 70 53 84
3 84 53 52
3 83 60 59
3 85 86 82
3 71 84 86
3 87 88 69
3 80 89 59
3 90 85 81
3 91 79 78
3 92 93 94
3 95 87 96
3 97 98 78
3 99 96 69
3 100 81 80
3 101 102 95
3 68 91 103
3 91 98 104
3 104 98 97
3 105 97 86
3 80 88 87
3 106 90 94
3 107 108 109
3 106 105 85
3 110 87 95
3 99 111 112
3 113 114 115
3 116 117 118
3 111 104 105
3 119 120 121
3 111 99 103
3 90 100 113
3 122 96 99
3 113 100 110
3 122 123 124
3 125 115 102
3 124 123 112
3 112 111 106
3 120 102 101
3 114 95 102
3 126 127 128
3 94 113 127
3 129 130 109
3 131 92 132
3 129 128 125
3 131 112 93
3 133 121 118
3 134 135 136
3 132 135 116
3 127 115 125
3 121 101 124
3 124 131 137
3 92 126 138
3 133 117 139
3 125 120 119
3 135 132 138
3 136 138 128
3 140 141 142
3 130 119 140
3 140 119 133
3 116 135 134
3 143 144 145
3 141 139 146
3 147 148 149
3 108 150 136
3 151 152 153
3 148 150 108
3 117 116 154
3 155 156 157
3 109 140 158
3 159 160 161
3 147 134 150
3 151 143 149
3 156 158 142
3 139 154 162
3 155 163 164
3 154 134 147
3 165 158 156
3 152 149 148
3 165 153 152
3 144 160 166
3 157 142 146
3 146 162 166
3 162 147 145
3 163 167 168
3 153 156 155
3 169 170 143
3 171 172 168
3 173 174 169
3 155 175 167
3 176 170 169
3 157 177 159
3 159 177 166
3 174 173 178
3 159 179 167
3 151 180 164
3 181 168 167
3 161 160 144
3 144 143 170
3 13 1 0
3 173 164 163
3 182 183 176
3 181 179 161
3 183 184 170
3 1 15 185
3 185 171 186
3 172 171 178
3 187 161 184
3 188 178 15
3 20 186 189
3 168 181 189
3 181 187 190
3 183 182 190
3 191 176 174
3 15 178 171
3 21 189 190
3 190 182 24
3 24 182 191
3 191 188 14
3 25 31 2
3 31 25 50
3 17 30 50
3 12 10 9
3 57 5 29
3 35 22 7
3 31 0 2
3 57 3 5
3 9 6 8
3 38 9 4
3 13 11 12
3 10 11 4
3 1 13 15
3 29 5 0
3 49 16 18
3 22 19 21
3 185 20 2
3 7 22 23
3 8 7 24
3 35 25 22
3 28 12 24
3 18 17 27
3 12 28 13
3 16 29 17
3 29 0 30
3 64 32 34
3 39 35 36
3 4 3 38
3 50 25 39
3 36 6 38
3 40 32 27
3 46 36 37
3 33 32 41
3 67 42 44
3 43 45 44
3 64 47 49
3 45 26 39
3 46 45 36
3 72 51 53
3 70 54 56
3 27 26 43
3 48 57 49
3 58 44 37
3 62 58 3
3 62 3 48
3 68 59 61
3 64 49 32
3 74 58 63
3 51 47 34
3 41 65 33
3 42 40 43
3 76 52 34
3 74 67 58
3 63 62 47
3 88 59 69
3 78 54 71
3 53 70 72
3 41 40 73
3 73 42 55
3 55 67 56
3 56 74 72
3 51 72 47
3 60 66 61
3 65 41 75
3 34 33 76
3 83 77 76
3 83 76 60
3 75 54 79
3 75 73 54
3 91 68 79
3 61 65 79
3 89 80 82
3 89 82 83
3 86 84 82
3 71 70 84
3 77 84 52
3 89 83 59
3 81 85 82
3 97 71 86
3 96 87 69
3 88 80 59
3 100 90 81
3 98 91 78
3 126 92 94
3 122 95 96
3 71 97 78
3 103 99 69
3 110 100 80
3 122 101 95
3 69 68 103
3 103 91 104
3 105 104 97
3 85 105 86
3 110 80 87
3 93 106 94
3 165 107 109
3 90 106 85
3 114 110 95
3 123 99 112
3 127 113 115
3 137 116 118
3 106 111 105
3 133 119 121
3 104 111 103
3 94 90 113
3 123 122 99
3 114 113 110
3 101 122 124
3 120 125 102
3 131 124 112
3 93 112 106
3 121 120 101
3 115 114 102
3 138 126 128
3 126 94 127
3 108 129 109
3 137 131 132
3 130 129 125
3 92 131 93
3 117 133 118
3 150 134 136
3 137 132 116
3 128 127 125
3 118 121 124
3 118 124 137
3 132 92 138
3 141 133 139
3 130 125 119
3 136 135 138
3 129 136 128
3 158 140 142
3 109 130 140
3 141 140 133
3 154 116 134
3 149 143 145
3 142 141 146
3 145 147 149
3 129 108 136
3 180 151 153
3 107 148 108
3 139 117 154
3 175 155 157
3 165 109 158
3 179 159 161
3 148 147 150
3 152 151 149
3 157 156 142
3 146 139 162
3 180 155 164
3 162 154 147
3 153 165 156
3 107 152 148
3 107 165 152
3 145 144 166
3 177 157 146
3 177 146 166
3 166 162 145
3 172 163 168
3 180 153 155
3 151 169 143
3 186 171 168
3 164 173 169
3 163 155 167
3 174 176 169
3 175 157 159
3 160 159 166
3 188 174 178
3 175 159 167
3 169 151 164
3 179 181 167
3 184 161 144
3 184 144 170
3 11 13 0
3 172 173 163
3 191 182 176
3 187 181 161
3 176 183 170
3 2 1 185
3 20 185 186
3 173 172 178
3 183 187 184
3 14 188 15
3 21 20 189
3 186 168 189
3 189 181 190
3 187 183 190
3 188 191 174
3 185 15 171
3 23 21 190
3 23 190 24
3 28 24 191
3 28 191 14
3 19 25 2
3 30 31 50
3 26 17 50
3 8 12 9
3 16 57 29
3 6 35 7
