ply
format ascii 1.0
comment Created by Blender 2.74 (sub 0) - www.blender.org, source file: ''
element vertex 12
property float x
property float y
property float z
property uchar red
property uchar green
property uchar blue
element face 10
property list uchar uint vertex_indices
end_header
0.000000 0.000000 0.000000 255 0 0
0.297521 2.064660 0.000000 255 97 0
-2.553484 4.843106 0.000000 255 255 0
3.816998 3.925109 0.000000 255 255 0
2.055547 0.355056 0.000000 255 97 0
4.912518 -2.417255 0.000000 255 255 0
0.972877 -1.845223 0.000000 255 97 0
-0.780895 -5.419055 0.000000 255 255 0
-1.454277 -1.495466 0.000000 255 97 0
-5.395138 -0.931905 0.000000 255 255 0
-1.871670 0.920974 0.000000 255 97 0
-2.553483 4.843106 0.000000 255 255 0
3 0 1 2
3 0 3 1
3 0 4 3
3 0 5 4
3 0 6 5
3 0 7 6
3 0 8 7
3 0 9 8
3 0 10 9
3 0 11 10
