ply
format ascii 1.0
comment Created by Blender 2.74 (sub 0) - www.blender.org, source file: ''
element vertex 12
property float x
property float y
property float z
property uchar red
property uchar green
property uchar blue
element face 10
property list uchar uint vertex_indices
end_header
0.000000 0.000000 0.000000 255 0 0
0.447892 0.616471 0.000000 255 97 0
0.000000 2.000000 0.000000 255 255 0
1.902113 0.618034 0.000000 255 255 0
0.724705 -0.235471 0.000000 255 97 0
1.175570 -1.618034 0.000000 255 255 0
-0.000000 -0.762000 0.000000 255 97 0
-1.175571 -1.618034 0.000000 255 255 0
-0.724705 -0.235471 0.000000 255 97 0
-1.902113 0.618034 0.000000 255 255 0
-0.447892 0.616471 0.000000 255 97 0
0.000000 2.000000 0.000000 255 255 0
3 0 1 2
3 0 3 1
3 0 4 3
3 0 5 4
3 0 6 5
3 0 7 6
3 0 8 7
3 0 9 8
3 0 10 9
3 0 11 10
