ply
format ascii 1.0
comment Created by Blender 2.74 (sub 0) - www.blender.org, source file: ''
element vertex 211
property float x
property float y
property float z
property uchar red
property uchar green
property uchar blue
element face 189
property list uchar uint vertex_indices
end_header
1.750320 -0.170440 0.000000 0 0 255
1.869720 -0.108460 0.000000 0 0 255
1.750320 -0.108460 0.000000 0 0 255
1.838400 -0.193260 0.000000 0 0 255
1.775120 0.255560 0.000000 0 0 255
1.860580 0.066380 0.000000 0 0 255
1.860580 0.282320 0.000000 0 0 255
1.775120 -0.049100 0.000000 0 0 255
1.822740 -0.049100 0.000000 0 0 255
1.413040 0.125100 0.000000 0 0 255
1.521340 0.125740 0.000000 0 0 255
1.521340 0.157720 0.000000 0 0 255
1.677260 0.097700 0.000000 0 0 255
1.615280 0.155100 0.000000 0 0 255
1.413040 0.078780 0.000000 0 0 255
1.440440 0.078780 0.000000 0 0 255
1.521340 0.075520 0.000000 0 0 255
1.597020 0.075520 0.000000 0 0 255
1.677260 -0.122800 0.000000 0 0 255
1.440440 -0.122800 0.000000 0 0 255
1.521340 -0.122800 0.000000 0 0 255
1.597020 -0.122800 0.000000 0 0 255
1.413040 -0.131300 0.000000 0 0 255
1.548740 -0.131300 0.000000 0 0 255
1.569620 -0.131300 0.000000 0 0 255
1.704660 -0.131300 0.000000 0 0 255
1.413040 -0.175000 0.000000 0 0 255
1.548740 -0.175000 0.000000 0 0 255
1.569620 -0.175000 0.000000 0 0 255
1.704660 -0.175000 0.000000 0 0 255
1.079040 0.092480 0.000000 0 0 255
1.214720 0.137480 0.000000 0 0 255
1.079040 0.137480 0.000000 0 0 255
1.214720 0.092480 0.000000 0 0 255
1.235600 0.092480 0.000000 0 0 255
1.370640 0.137480 0.000000 0 0 255
1.235600 0.137480 0.000000 0 0 255
1.370640 0.092480 0.000000 0 0 255
1.107080 0.084000 0.000000 0 0 255
1.187320 0.084000 0.000000 0 0 255
1.262340 0.084000 0.000000 0 0 255
1.343240 0.084000 0.000000 0 0 255
1.106440 -0.135200 0.000000 0 0 255
1.187320 -0.116940 0.000000 0 0 255
1.262340 -0.116940 0.000000 0 0 255
1.343240 -0.120860 0.000000 0 0 255
1.370640 -0.120860 0.000000 0 0 255
1.370640 -0.159340 0.000000 0 0 255
1.169060 -0.192620 0.000000 0 0 255
1.262340 -0.163900 0.000000 0 0 255
1.262340 -0.192620 0.000000 0 0 255
0.923120 0.261440 0.000000 0 0 255
1.052940 0.268620 0.000000 0 0 255
1.026180 0.293400 0.000000 0 0 255
1.052940 0.224900 0.000000 0 0 255
0.923120 0.133580 0.000000 0 0 255
1.004000 0.224900 0.000000 0 0 255
1.004000 0.133580 0.000000 0 0 255
0.895720 0.125100 0.000000 0 0 255
1.031400 0.125100 0.000000 0 0 255
0.895720 0.078780 0.000000 0 0 255
1.031400 0.078780 0.000000 0 0 255
0.923120 0.078780 0.000000 0 0 255
0.923120 -0.122800 0.000000 0 0 255
1.004000 0.078780 0.000000 0 0 255
1.004000 -0.122800 0.000000 0 0 255
0.895720 -0.131300 0.000000 0 0 255
1.031400 -0.131300 0.000000 0 0 255
0.895720 -0.175000 0.000000 0 0 255
1.031400 -0.175000 0.000000 0 0 255
0.474940 0.099660 0.000000 0 255 0
0.713040 0.095740 0.000000 0 255 0
0.650420 0.153800 0.000000 0 255 0
0.474940 0.004400 0.000000 0 255 0
0.555820 0.075520 0.000000 0 255 0
0.634120 0.075520 0.000000 0 255 0
0.694780 0.045500 0.000000 0 255 0
0.555820 0.020720 0.000000 0 255 0
0.647160 0.020720 0.000000 0 255 0
0.711740 0.001140 0.000000 0 255 0
0.537560 -0.053000 0.000000 0 255 0
0.630840 -0.023640 0.000000 0 255 0
0.711740 -0.138460 0.000000 0 255 0
0.630840 -0.116940 0.000000 0 255 0
0.474940 -0.109760 0.000000 0 255 0
0.561040 -0.116940 0.000000 0 255 0
0.550600 -0.086920 0.000000 0 255 0
0.474940 -0.135200 0.000000 0 255 0
0.537560 -0.192620 0.000000 0 255 0
0.283780 0.121180 0.000000 0 255 0
0.311180 0.078780 0.000000 0 255 0
0.392080 0.155100 0.000000 0 255 0
0.392080 -0.122800 0.000000 0 255 0
0.283780 0.078780 0.000000 0 255 0
0.311180 -0.122800 0.000000 0 255 0
0.283780 -0.131300 0.000000 0 255 0
0.419480 -0.131300 0.000000 0 255 0
0.283780 -0.175000 0.000000 0 255 0
0.419480 -0.175000 0.000000 0 255 0
0.311180 0.216420 0.000000 0 255 0
0.410340 0.269260 0.000000 0 255 0
0.311180 0.269260 0.000000 0 255 0
0.382300 0.195540 0.000000 0 255 0
-0.182020 0.222300 0.000000 255 0 0
0.028700 0.266660 0.000000 255 0 0
-0.182020 0.266660 0.000000 255 0 0
0.088720 0.210560 0.000000 255 0 0
-0.153300 0.213820 0.000000 255 0 0
-0.153300 -0.122160 0.000000 255 0 0
-0.071100 0.209240 0.000000 255 0 0
0.008480 0.209240 0.000000 255 0 0
0.088720 0.084640 0.000000 255 0 0
-0.071100 0.093780 0.000000 255 0 0
0.008480 0.093780 0.000000 255 0 0
-0.071100 0.035720 0.000000 255 0 0
0.066540 0.065080 0.000000 255 0 0
0.028700 0.035720 0.000000 255 0 0
0.114160 0.019400 0.000000 255 0 0
-0.071100 -0.104540 0.000000 255 0 0
0.028700 -0.104540 0.000000 255 0 0
0.114160 -0.017120 0.000000 255 0 0
0.073060 -0.139780 0.000000 255 0 0
-0.182020 -0.131300 0.000000 255 0 0
-0.182020 -0.175000 0.000000 255 0 0
-0.039800 -0.175000 0.000000 255 0 0
-0.539520 -0.116940 0.000000 255 0 0
-0.371860 0.278400 0.000000 255 0 0
-0.397940 0.278400 0.000000 255 0 0
-0.384240 0.140100 0.000000 255 0 0
-0.376420 0.140100 0.000000 255 0 0
-0.234860 -0.120200 0.000000 255 0 0
-0.432520 -0.004080 0.000000 255 0 0
-0.376420 0.070300 0.000000 255 0 0
-0.356200 -0.004080 0.000000 255 0 0
-0.452740 -0.062800 0.000000 255 0 0
-0.341200 -0.062800 0.000000 255 0 0
-0.472980 -0.122160 0.000000 255 0 0
-0.322920 -0.124760 0.000000 255 0 0
-0.583880 -0.131300 0.000000 255 0 0
-0.201580 -0.131300 0.000000 255 0 0
-0.442960 -0.131300 0.000000 255 0 0
-0.342500 -0.131300 0.000000 255 0 0
-0.583880 -0.175000 0.000000 255 0 0
-0.442960 -0.175000 0.000000 255 0 0
-0.342500 -0.175000 0.000000 255 0 0
-0.201580 -0.175000 0.000000 255 0 0
-0.847440 0.222300 0.000000 255 0 0
-0.702600 0.266660 0.000000 255 0 0
-0.847440 0.266660 0.000000 255 0 0
-0.702600 0.222300 0.000000 255 0 0
-0.818740 0.213820 0.000000 255 0 0
-0.733280 0.213820 0.000000 255 0 0
-0.818740 -0.122160 0.000000 255 0 0
-0.733280 -0.107800 0.000000 255 0 0
-0.653680 -0.107800 0.000000 255 0 0
-0.587140 -0.023000 0.000000 255 0 0
-0.623020 -0.023000 0.000000 255 0 0
-0.587140 -0.139120 0.000000 255 0 0
-0.847440 -0.131300 0.000000 255 0 0
-0.847440 -0.175000 0.000000 255 0 0
-0.703260 -0.175000 0.000000 255 0 0
-1.119480 0.216420 0.000000 255 0 0
-1.065340 0.184460 0.000000 255 0 0
-0.979860 0.258840 0.000000 255 0 0
-0.979860 -0.119540 0.000000 255 0 0
-1.119480 0.184460 0.000000 255 0 0
-1.065340 -0.118900 0.000000 255 0 0
-1.103820 -0.131300 0.000000 255 0 0
-0.943980 -0.131300 0.000000 255 0 0
-1.103820 -0.175000 0.000000 255 0 0
-0.943980 -0.175000 0.000000 255 0 0
-1.487420 0.241860 0.000000 255 0 0
-1.297580 0.268620 0.000000 255 0 0
-1.402600 0.268620 0.000000 255 0 0
-1.246700 0.221640 0.000000 255 0 0
-1.529180 0.124440 0.000000 255 0 0
-1.443700 0.203380 0.000000 255 0 0
-1.318460 0.202720 0.000000 255 0 0
-1.246700 0.153140 0.000000 255 0 0
-1.443700 -0.107800 0.000000 255 0 0
-1.300180 0.153140 0.000000 255 0 0
-1.529180 -0.117600 0.000000 255 0 0
-1.377820 0.047460 0.000000 255 0 0
-1.225820 0.089860 0.000000 255 0 0
-1.377820 0.089860 0.000000 255 0 0
-1.225820 0.040940 0.000000 255 0 0
-1.328900 0.031800 0.000000 255 0 0
-1.243420 0.035060 0.000000 255 0 0
-1.243420 -0.179560 0.000000 255 0 0
-1.328900 -0.107800 0.000000 255 0 0
-1.289740 -0.149560 0.000000 255 0 0
-1.463940 -0.178920 0.000000 255 0 0
-1.383040 -0.178920 0.000000 255 0 0
-1.278000 -0.179560 0.000000 255 0 0
-1.814920 0.241860 0.000000 255 0 0
-1.638760 0.268620 0.000000 255 0 0
-1.730100 0.268620 0.000000 255 0 0
-1.588540 0.221640 0.000000 255 0 0
-1.856660 0.124440 0.000000 255 0 0
-1.771200 0.202720 0.000000 255 0 0
-1.659640 0.202720 0.000000 255 0 0
-1.588540 0.153140 0.000000 255 0 0
-1.771200 -0.107800 0.000000 255 0 0
-1.642040 0.153140 0.000000 255 0 0
-1.856660 -0.117600 0.000000 255 0 0
-1.658340 -0.107800 0.000000 255 0 0
-1.584620 -0.049740 0.000000 255 0 0
-1.638120 -0.049740 0.000000 255 0 0
-1.584620 -0.142380 0.000000 255 0 0
-1.791420 -0.178920 0.000000 255 0 0
-1.700100 -0.178920 0.000000 255 0 0
3 0 1 2
3 0 3 1
3 4 5 6
3 7 5 4
3 8 5 7
3 9 10 11
3 10 12 13
3 9 12 10
3 14 12 9
3 14 15 12
3 15 16 12
3 16 17 12
3 17 18 12
3 19 16 15
3 19 20 16
3 21 18 17
3 22 20 19
3 22 23 20
3 24 18 21
3 24 25 18
3 26 23 22
3 26 27 23
3 28 25 24
3 28 29 25
3 30 31 32
3 30 33 31
3 34 35 36
3 34 37 35
3 38 33 30
3 38 39 33
3 40 37 34
3 40 41 37
3 42 39 38
3 42 43 39
3 44 41 40
3 44 45 41
3 42 44 43
3 42 45 44
3 42 46 45
3 42 47 46
3 48 49 42
3 49 47 42
3 49 50 47
3 51 52 53
3 51 54 52
3 55 56 51
3 56 54 51
3 55 57 56
3 58 57 55
3 58 59 57
3 60 59 58
3 60 61 59
3 62 61 60
3 63 64 62
3 64 61 62
3 63 65 64
3 66 65 63
3 66 67 65
3 68 67 66
3 68 69 67
3 70 71 72
3 73 74 70
3 74 71 70
3 74 75 71
3 75 76 71
3 73 77 74
3 73 78 77
3 73 79 78
3 80 81 73
3 81 79 73
3 81 82 79
3 83 82 81
3 84 85 86
3 87 85 84
3 87 83 85
3 87 82 83
3 88 82 87
3 89 90 91
3 90 92 91
3 93 90 89
3 94 92 90
3 95 92 94
3 95 96 92
3 97 96 95
3 97 98 96
3 99 100 101
3 99 102 100
3 103 104 105
3 103 106 104
3 107 106 103
3 108 109 107
3 109 106 107
3 109 110 106
3 110 111 106
3 108 112 109
3 113 111 110
3 108 114 112
3 114 113 112
3 114 111 113
3 114 115 111
3 114 116 115
3 116 117 115
3 108 118 114
3 119 117 116
3 119 120 117
3 119 121 120
3 108 119 118
3 108 121 119
3 122 121 108
3 123 121 122
3 123 124 121
3 125 126 127
3 125 128 126
3 128 129 126
3 129 130 126
3 125 131 128
3 132 130 129
3 133 130 132
3 125 134 131
3 134 133 131
3 134 135 133
3 135 130 133
3 125 136 134
3 137 130 135
3 138 136 125
3 137 139 130
3 138 140 136
3 141 139 137
3 142 140 138
3 142 143 140
3 144 139 141
3 144 145 139
3 146 147 148
3 146 149 147
3 150 149 146
3 150 151 149
3 152 151 150
3 152 153 151
3 154 155 156
3 154 157 155
3 152 154 153
3 152 157 154
3 158 157 152
3 159 157 158
3 159 160 157
3 161 162 163
3 162 164 163
3 165 162 161
3 166 164 162
3 167 164 166
3 167 168 164
3 169 168 167
3 169 170 168
3 171 172 173
3 171 174 172
3 175 176 171
3 176 174 171
3 176 177 174
3 177 178 174
3 175 179 176
3 180 178 177
3 181 179 175
3 182 183 184
3 182 185 183
3 186 185 182
3 186 187 185
3 186 188 187
3 189 188 186
3 181 189 179
3 181 190 189
3 190 188 189
3 191 190 181
3 191 192 190
3 193 188 190
3 194 195 196
3 194 197 195
3 198 199 194
3 199 197 194
3 199 200 197
3 200 201 197
3 198 202 199
3 203 201 200
3 204 202 198
3 205 206 207
3 205 208 206
3 204 205 202
3 204 208 205
3 209 208 204
3 209 210 208
