ply
format ascii 1.0
comment Created by Blender 2.78 (sub 0) - www.blender.org, source file: ''
element vertex 192
property float x
property float y
property float z
property uchar red
property uchar green
property uchar blue
element face 384
property list uchar uint vertex_indices
end_header
0.112013 0.550298 -1.193652 255 64 0
-0.082938 0.799475 -0.964902 255 0 0
0.198203 0.661574 -1.048864 255 64 0
0.402071 -0.077064 -1.007839 255 191 0
0.286655 0.201344 -1.205976 255 128 0
0.534754 0.004636 -1.136274 255 191 0
0.067208 0.330179 -0.716191 255 64 0
-0.215657 0.315372 -0.802244 255 0 0
-0.018982 0.218903 -0.860980 255 64 0
0.191241 0.090095 -1.067070 255 128 0
0.172665 0.097734 -0.866143 255 128 0
0.012700 0.374550 -1.198595 255 64 0
-0.280468 0.354468 -0.989449 255 0 0
-0.268442 0.512452 -1.114634 255 0 0
-0.041560 0.237282 -1.060798 255 64 0
-0.472539 0.795778 -0.940013 255 0 64
-0.186622 0.696780 -1.104466 255 0 0
0.403015 0.366314 -1.201492 255 128 0
0.666552 0.157366 -1.127453 255 191 0
0.925593 0.084856 -0.844507 255 255 0
0.884664 -0.062306 -0.976580 255 255 0
-0.018127 0.760381 -0.777697 255 0 0
-0.218452 0.667594 -0.544207 255 0 64
-0.030154 0.602396 -0.652512 255 0 0
-0.246861 0.839579 -0.646134 255 0 64
-0.352107 0.892674 -0.810082 255 0 64
-0.283523 0.477467 -0.564008 255 0 64
-0.111973 0.418068 -0.662680 255 0 0
-0.403956 0.380570 -0.693938 255 0 64
0.220781 0.643195 -0.849045 255 64 0
0.166521 0.505926 -0.711248 255 64 0
-0.509202 0.433666 -0.857887 255 0 64
0.720258 0.291660 -0.986542 255 191 0
0.838902 0.153112 -0.675387 255 255 0
0.472158 0.488368 -1.056245 255 128 0
1.074172 -0.117951 -0.639818 191 255 0
1.129268 -0.474231 -0.489993 128 255 0
1.042488 -0.277732 -0.759154 191 255 0
0.241809 0.219788 -0.720895 255 128 0
0.358169 0.384758 -0.716411 255 128 0
0.453582 0.496008 -0.855318 255 128 0
0.965161 -0.019229 -0.501447 191 255 0
0.346225 -0.039874 -0.817382 255 191 0
0.399931 0.094420 -0.676472 255 191 0
1.034585 -0.176428 -0.286118 128 255 0
1.155869 -0.302939 -0.386424 128 255 0
0.779312 -0.039396 -0.425097 191 255 0
0.530798 -0.037384 -0.585948 255 255 0
0.625493 -0.166639 -0.455492 191 255 0
0.531728 0.247150 -0.667651 255 191 0
0.675373 0.102479 -0.568289 255 255 0
0.888669 -0.404974 -0.789550 191 255 0
0.664412 0.328849 -0.796086 255 191 0
0.970366 -0.589963 -0.536156 128 255 0
0.780102 -0.713686 -0.255828 64 255 0
0.772244 -0.582341 -0.497871 128 255 0
0.683455 -0.383047 -0.112464 64 255 0
0.650960 -0.455830 -0.397565 128 255 0
0.657429 -0.563956 -0.198310 64 255 0
0.740090 -0.202168 -0.994239 255 255 0
0.489869 -0.184545 -0.718020 255 255 0
0.576561 -0.252801 -0.887140 255 255 0
0.968721 -0.636013 0.483912 0 255 64
0.988200 -0.404312 0.208186 0 255 0
0.875551 -0.459467 0.453475 0 255 64
0.702820 -0.425142 -0.713199 191 255 0
0.593809 -0.326420 -0.574828 191 255 0
1.042443 -0.307773 -0.044076 64 255 0
0.979613 -0.744526 -0.251326 64 255 0
1.139091 -0.638412 -0.187440 64 255 0
0.712174 -0.469479 0.675076 0 255 128
0.776462 -0.647795 0.744686 0 255 128
0.612774 -0.643430 0.009358 0 255 0
0.642772 -0.455452 0.076732 0 255 0
0.836464 -0.168806 -0.247833 128 255 0
0.677561 -0.284539 -0.293996 128 255 0
1.165116 -0.457502 -0.101594 64 255 0
1.101283 -0.571108 0.195261 0 255 0
0.842933 -0.276932 -0.048578 64 255 0
0.915780 -0.858132 0.045529 0 255 0
1.071286 -0.759086 0.127887 0 255 0
0.798278 -0.356406 0.159089 0 255 0
0.705543 -0.401811 0.361017 0 255 64
0.726254 -0.840545 0.711499 0 255 128
0.783217 -0.923037 0.334180 0 255 64
0.930475 -0.828030 0.434498 0 255 64
0.725858 -0.810225 -0.003567 0 255 0
0.613209 -0.865380 0.241722 0 255 64
0.449832 -0.875392 0.463323 0 255 128
0.590959 -0.934819 0.594955 0 255 128
0.520039 -0.688835 0.211285 0 255 64
0.537610 -0.605650 0.959814 0 255 191
0.509202 -0.433666 0.857887 0 255 191
0.246861 -0.839579 0.646134 0 255 191
0.352107 -0.892674 0.810083 0 255 191
0.558285 -0.496818 0.260699 0 255 64
-0.166521 -0.505926 0.711248 0 191 255
0.018127 -0.760380 0.777697 0 255 255
-0.220781 -0.643195 0.849045 0 191 255
0.268441 -0.512452 1.114634 0 255 255
0.280468 -0.354467 0.989449 0 255 255
0.403956 -0.380570 0.693938 0 255 191
0.571047 -0.410053 0.543444 0 255 128
0.472539 -0.795778 0.940013 0 255 191
0.041560 -0.237282 1.060798 0 191 255
0.435752 -0.504327 0.426899 0 255 128
0.385543 -0.697077 0.393712 0 255 128
0.218452 -0.667594 0.544207 0 255 191
0.030154 -0.602396 0.652512 0 255 255
-1.074172 0.117951 0.639818 64 0 255
-0.884664 0.062306 0.976579 0 0 255
-1.042488 0.277732 0.759154 64 0 255
0.186622 -0.696780 1.104466 0 255 255
0.111973 -0.418068 0.662680 0 255 255
0.215657 -0.315372 0.802244 0 255 255
0.082938 -0.799475 0.964902 0 255 255
-0.112013 -0.550298 1.193652 0 191 255
-0.198204 -0.661574 1.048864 0 191 255
-0.399931 -0.094420 0.676472 0 64 255
-0.172665 -0.097735 0.866143 0 128 255
-0.241809 -0.219788 0.720895 0 128 255
0.283523 -0.477467 0.564008 0 255 191
-0.534754 -0.004636 1.136274 0 64 255
-0.191241 -0.090095 1.067070 0 128 255
-0.402071 0.077064 1.007838 0 64 255
0.018982 -0.218902 0.860979 0 191 255
-0.403015 -0.366314 1.201492 0 128 255
-0.012700 -0.374550 1.198595 0 191 255
-0.286655 -0.201344 1.205976 0 128 255
-0.067208 -0.330179 0.716191 0 191 255
-0.472158 -0.488368 1.056245 0 128 255
-0.453582 -0.496008 0.855318 0 128 255
-0.720258 -0.291660 0.986543 0 64 255
-0.925593 -0.084856 0.844507 0 0 255
-0.358169 -0.384758 0.716411 0 128 255
-0.666552 -0.157366 1.127453 0 64 255
-0.346225 0.039874 0.817382 0 64 255
-0.675373 -0.102479 0.568289 0 0 255
-0.664412 -0.328849 0.796086 0 64 255
-0.838902 -0.153112 0.675387 0 0 255
-0.489869 0.184545 0.718020 0 0 255
-0.576561 0.252801 0.887140 0 0 255
-0.531728 -0.247150 0.667651 0 64 255
-0.740090 0.202168 0.994239 0 0 255
-0.702820 0.425142 0.713199 64 0 255
-0.888669 0.404975 0.789549 64 0 255
-0.530798 0.037384 0.585948 0 0 255
-1.042443 0.307773 0.044075 191 0 255
-0.836464 0.168806 0.247833 128 0 255
-1.034585 0.176428 0.286118 128 0 255
-0.593809 0.326420 0.574828 64 0 255
-0.779312 0.039396 0.425097 64 0 255
-1.165116 0.457503 0.101594 191 0 255
-1.129268 0.474231 0.489993 128 0 255
-1.139091 0.638412 0.187440 191 0 255
-0.965161 0.019229 0.501447 64 0 255
-0.979613 0.744527 0.251325 191 0 255
-0.772244 0.582341 0.497871 128 0 255
-0.780102 0.713686 0.255828 191 0 255
-0.657429 0.563956 0.198310 191 0 255
-0.642772 0.455451 -0.076732 255 0 255
-0.612775 0.643430 -0.009358 255 0 255
-1.155869 0.302939 0.386424 128 0 255
-0.970366 0.589963 0.536156 128 0 255
-0.625493 0.166639 0.455492 64 0 255
-1.071286 0.759086 -0.127887 255 0 255
-0.842933 0.276932 0.048578 191 0 255
-0.677561 0.284538 0.293996 128 0 255
-0.650960 0.455830 0.397565 128 0 255
-0.915780 0.858132 -0.045529 255 0 255
-0.613209 0.865380 -0.241723 255 0 191
-0.783217 0.923037 -0.334180 255 0 191
-1.101283 0.571108 -0.195261 255 0 255
-0.590959 0.934819 -0.594955 255 0 128
-0.449832 0.875392 -0.463323 255 0 128
-0.930475 0.828030 -0.434498 255 0 191
-0.725858 0.810225 0.003567 255 0 255
-0.875550 0.459467 -0.453475 255 0 191
-0.968720 0.636013 -0.483912 255 0 191
-0.683454 0.383047 0.112464 191 0 255
-0.726253 0.840545 -0.711499 255 0 128
-0.776462 0.647795 -0.744687 255 0 128
-0.520039 0.688835 -0.211286 255 0 191
-0.798278 0.356406 -0.159089 255 0 255
-0.988200 0.404312 -0.208185 255 0 255
-0.571047 0.410053 -0.543444 255 0 128
-0.712173 0.469479 -0.675076 255 0 128
-0.558285 0.496818 -0.260699 255 0 191
-0.705543 0.401811 -0.361017 255 0 191
-0.537610 0.605650 -0.959814 255 0 64
-0.385543 0.697077 -0.393713 255 0 128
-0.435752 0.504327 -0.426900 255 0 128
3 0 1 2
3 3 4 5
3 6 7 8
3 8 9 10
3 11 12 13
3 11 9 14
3 13 15 16
3 4 0 17
3 18 19 20
3 21 22 23
3 24 1 25
3 23 26 27
3 27 28 7
3 29 23 30
3 12 28 31
3 32 33 19
3 31 13 12
3 17 32 18
3 0 34 17
3 35 36 37
3 30 38 39
3 3 10 9
3 29 39 40
3 6 10 38
3 35 33 41
3 38 42 43
3 35 44 45
3 46 47 48
3 49 47 50
3 51 20 37
3 52 39 49
3 49 38 43
3 53 54 55
3 56 57 58
3 52 50 33
3 5 20 59
3 47 42 60
3 60 3 61
3 3 59 61
3 62 63 64
3 20 35 37
3 60 65 66
3 51 36 53
3 67 45 44
3 41 50 46
3 68 36 69
3 48 60 66
3 61 51 65
3 62 70 71
3 56 72 73
3 58 55 54
3 41 74 44
3 46 75 74
3 48 57 75
3 66 55 57
3 55 51 53
3 76 63 77
3 44 78 67
3 45 69 36
3 79 69 80
3 69 77 80
3 56 81 78
3 74 56 78
3 64 81 82
3 67 81 63
3 83 84 85
3 84 80 85
3 86 84 87
3 58 86 72
3 86 68 79
3 80 62 85
3 88 84 89
3 72 87 90
3 91 70 92
3 83 62 71
3 93 89 94
3 82 73 95
3 96 97 98
3 99 92 100
3 90 73 72
3 101 70 102
3 94 83 103
3 104 99 100
3 64 102 70
3 82 105 102
3 105 90 106
3 106 87 88
3 83 91 103
3 107 97 108
3 109 110 111
3 107 88 93
3 103 99 112
3 101 113 114
3 115 116 117
3 118 119 120
3 121 106 107
3 122 123 124
3 121 102 105
3 93 115 97
3 100 101 114
3 115 103 112
3 100 125 104
3 126 127 128
3 125 113 129
3 113 107 108
3 128 104 123
3 112 127 116
3 98 130 131
3 97 117 98
3 132 110 133
3 129 134 120
3 132 126 135
3 129 108 96
3 124 119 136
3 137 138 139
3 134 118 120
3 117 126 130
3 123 125 119
3 125 120 119
3 96 131 134
3 124 140 141
3 126 122 135
3 142 131 138
3 138 130 132
3 143 144 145
3 135 143 110
3 143 124 141
3 118 137 146
3 147 148 149
3 141 150 144
3 151 149 148
3 133 138 132
3 152 153 154
3 155 133 109
3 136 146 140
3 156 157 158
3 110 145 111
3 159 160 161
3 151 139 155
3 152 149 162
3 163 144 157
3 140 164 150
3 156 165 154
3 146 151 164
3 111 163 153
3 162 155 109
3 111 162 109
3 166 167 148
3 157 150 168
3 150 167 168
3 164 148 167
3 169 170 171
3 153 156 154
3 172 147 152
3 173 170 174
3 175 172 165
3 156 176 169
3 177 172 178
3 157 159 158
3 159 167 179
3 178 180 181
3 159 176 158
3 152 165 172
3 182 176 161
3 160 166 183
3 166 184 183
3 13 0 11
3 175 169 171
3 185 177 186
3 182 160 187
3 188 184 177
3 16 25 1
3 25 174 24
3 171 180 175
3 187 183 188
3 181 15 189
3 24 190 22
3 170 190 174
3 182 191 190
3 188 191 187
3 186 178 181
3 15 173 25
3 22 191 26
3 191 28 26
3 28 186 31
3 186 189 31
3 29 1 21
3 2 40 34
3 32 40 52
3 12 8 7
3 5 17 18
3 30 27 6
3 0 16 1
3 3 9 4
3 6 27 7
3 8 14 9
3 11 14 12
3 11 4 9
3 13 189 15
3 4 11 0
3 18 32 19
3 21 24 22
3 24 21 1
3 23 22 26
3 27 26 28
3 29 21 23
3 12 7 28
3 32 52 33
3 31 189 13
3 17 34 32
3 0 2 34
3 35 45 36
3 30 6 38
3 3 42 10
3 29 30 39
3 6 8 10
3 35 19 33
3 38 10 42
3 35 41 44
3 46 50 47
3 49 43 47
3 51 59 20
3 52 40 39
3 49 39 38
3 53 68 54
3 56 75 57
3 52 49 50
3 5 18 20
3 47 43 42
3 60 42 3
3 3 5 59
3 62 77 63
3 20 19 35
3 60 61 65
3 51 37 36
3 67 76 45
3 41 33 50
3 68 53 36
3 48 47 60
3 61 59 51
3 62 64 70
3 56 58 72
3 58 57 55
3 41 46 74
3 46 48 75
3 48 66 57
3 66 65 55
3 55 65 51
3 76 67 63
3 44 74 78
3 45 76 69
3 79 68 69
3 69 76 77
3 56 73 81
3 74 75 56
3 64 63 81
3 67 78 81
3 83 89 84
3 84 79 80
3 86 79 84
3 58 54 86
3 86 54 68
3 80 77 62
3 88 87 84
3 72 86 87
3 91 71 70
3 83 85 62
3 93 88 89
3 82 81 73
3 96 108 97
3 99 91 92
3 90 95 73
3 101 92 70
3 94 89 83
3 104 127 99
3 64 82 102
3 82 95 105
3 105 95 90
3 106 90 87
3 83 71 91
3 107 93 97
3 109 133 110
3 107 106 88
3 103 91 99
3 101 121 113
3 115 112 116
3 118 136 119
3 121 105 106
3 122 128 123
3 121 101 102
3 93 94 115
3 100 92 101
3 115 94 103
3 100 114 125
3 126 116 127
3 125 114 113
3 113 121 107
3 128 127 104
3 112 99 127
3 98 117 130
3 97 115 117
3 132 135 110
3 129 96 134
3 132 130 126
3 129 113 108
3 124 123 119
3 137 142 138
3 134 142 118
3 117 116 126
3 123 104 125
3 125 129 120
3 96 98 131
3 124 136 140
3 126 128 122
3 142 134 131
3 138 131 130
3 143 141 144
3 135 122 143
3 143 122 124
3 118 142 137
3 147 166 148
3 141 140 150
3 151 155 149
3 133 139 138
3 152 162 153
3 155 139 133
3 136 118 146
3 156 163 157
3 110 143 145
3 159 179 160
3 151 137 139
3 152 147 149
3 163 145 144
3 140 146 164
3 156 169 165
3 146 137 151
3 111 145 163
3 162 149 155
3 111 153 162
3 166 179 167
3 157 144 150
3 150 164 167
3 164 151 148
3 169 176 170
3 153 163 156
3 172 184 147
3 173 171 170
3 175 178 172
3 156 158 176
3 177 184 172
3 157 168 159
3 159 168 167
3 178 175 180
3 159 161 176
3 152 154 165
3 182 170 176
3 160 179 166
3 166 147 184
3 13 16 0
3 175 165 169
3 185 188 177
3 182 161 160
3 188 183 184
3 16 15 25
3 25 173 174
3 171 173 180
3 187 160 183
3 181 180 15
3 24 174 190
3 170 182 190
3 182 187 191
3 188 185 191
3 186 177 178
3 15 180 173
3 22 190 191
3 191 185 28
3 28 185 186
3 186 181 189
3 29 2 1
3 2 29 40
3 32 34 40
3 12 14 8
3 5 4 17
3 30 23 27
